<svg width="208" height="208" viewBox="0 0 208 208" fill="none" xmlns="http://www.w3.org/2000/svg">
<path d="M193.813 52.0528C202.6 67.2712 207.629 84.9325 207.629 103.768C207.629 160.973 161.256 207.346 104.051 207.346C84.8867 207.346 66.9382 202.14 51.5413 193.067C82.8461 187.097 113.776 170.259 140.493 141.67C150.459 152.348 161.584 146.471 162.016 144.844C162.274 143.866 159.078 140.816 153.932 138.472C165.882 137.836 171.513 128.744 171.04 127.149C170.621 125.745 162.723 124.429 153.39 126.514C169.039 106.345 182.818 81.5948 193.813 52.0528ZM104.051 0.189707C135.901 0.189707 164.393 14.5675 183.393 37.1849C182.891 38.7177 182.379 40.238 181.859 41.746C180.2 35.4758 177.619 31.3148 176.489 31.3743C175.142 31.4468 170.502 36.9595 170.619 45.1574C168.608 43.4409 167.018 42.6331 166.433 42.9248C164.802 43.7396 161.604 56.0482 172.35 65.7369C165.682 80.4966 158.02 93.8328 149.492 105.778C144.396 103.513 132.236 102.354 131.444 101.25C130.424 99.8265 129.536 93.955 132.266 90.7386C134.533 88.0694 166.268 70.7478 139.579 37.1884C134.288 30.5358 118.349 24.0823 104.777 28.7097C73.5793 39.347 77.6295 63.9767 77.6475 64.0851C34.2743 93.1047 31.0309 162.31 58.7479 174.652C51.0737 177.308 43.2093 179.467 35.1841 181.136C13.8867 162.165 0.472992 134.533 0.472993 103.768C0.473059 46.5636 46.8464 0.189809 104.051 0.189707ZM136.448 122.224C130.895 128.526 125.059 134.342 118.965 139.678C119.116 138.983 119.251 138.285 119.366 137.587C119.405 137.48 123.895 124.938 126.102 122.576C127.006 121.609 132.395 121.873 136.448 122.224ZM89.0333 50.528C95.5129 40.5172 109.417 34.3011 118.36 43.1382C130.187 38.5472 140.178 49.7273 141.89 61.4565C139.967 59.7959 137.774 58.0578 136.059 57.1324C121.315 49.1762 117.838 66.5084 131.936 69.9556C134.527 70.5891 137.686 73.2535 139.483 74.936C135.537 81.2743 126.934 85.2171 111.866 82.4987C93.5621 79.1967 86.3619 71.3314 85.5621 63.1766C88.6991 62.743 94.0111 62.1936 100.356 62.2866C104.655 62.3493 107.678 58.2037 107.298 54.4683C106.946 51.0257 101.53 44.7748 89.0333 50.528ZM121.169 63.9641C118.102 58.5913 111.263 59.3328 108.191 63.3434C107.035 64.8533 106.58 67.1384 108.15 68.2044C109.927 69.41 113.335 70.885 114.126 71.6239C115.005 72.4427 124.898 70.4949 121.169 63.9641Z" fill="#F1F6FB"/>
</svg>
